<?xml version="1.0" encoding="UTF-8" standalone="no"?>
<!-- Created with Inkscape (http://www.inkscape.org/) -->

<svg
   width="201.82785mm"
   height="81.643539mm"
   viewBox="0 0 201.82785 81.643539"
   version="1.1"
   id="svg5"
   xml:space="preserve"
   inkscape:version="1.2.1 (9c6d41e, 2022-07-14)"
   sodipodi:docname="caffeinated.svg"
   inkscape:export-filename="caffeinatedText.png"
   inkscape:export-xdpi="96"
   inkscape:export-ydpi="96"
   xmlns:inkscape="http://www.inkscape.org/namespaces/inkscape"
   xmlns:sodipodi="http://sodipodi.sourceforge.net/DTD/sodipodi-0.dtd"
   xmlns="http://www.w3.org/2000/svg"
   xmlns:svg="http://www.w3.org/2000/svg"><sodipodi:namedview
     id="namedview7"
     pagecolor="#505050"
     bordercolor="#eeeeee"
     borderopacity="1"
     inkscape:showpageshadow="0"
     inkscape:pageopacity="0"
     inkscape:pagecheckerboard="0"
     inkscape:deskcolor="#505050"
     inkscape:document-units="mm"
     showgrid="false"
     inkscape:zoom="0.5946522"
     inkscape:cx="116.03421"
     inkscape:cy="542.33382"
     inkscape:window-width="2185"
     inkscape:window-height="1369"
     inkscape:window-x="0"
     inkscape:window-y="25"
     inkscape:window-maximized="0"
     inkscape:current-layer="layer1" /><defs
     id="defs2"><rect
       x="-973.67841"
       y="225.3418"
       width="950.13519"
       height="306.06125"
       id="rect17670" /></defs><g
     inkscape:label="Layer 1"
     inkscape:groupmode="layer"
     id="layer1"
     transform="translate(-0.15730928,-166.43327)"><rect
       style="fill:#ffffff;fill-opacity:1;stroke-width:0.264583"
       id="rect3596"
       width="201.82787"
       height="81.643539"
       x="0.15730929"
       y="166.43327"
       inkscape:export-filename="caffeinatedStraight.png"
       inkscape:export-xdpi="96"
       inkscape:export-ydpi="96" /><text
       xml:space="preserve"
       transform="matrix(0.25324026,0,0.14058148,0.25324026,224.08563,129.27176)"
       id="text17668"
       style="font-style:normal;font-weight:normal;font-size:40px;line-height:1.25;font-family:sans-serif;white-space:pre;shape-inside:url(#rect17670);fill:#37251b;fill-opacity:1;stroke:none"><tspan
         x="-973.67773"
         y="401.07753"
         id="tspan4032"><tspan
           style="font-size:192px;font-family:'Coffee Signs';-inkscape-font-specification:'Coffee Signs, Normal'"
           id="tspan4030">caffeinated</tspan></tspan></text><g
       id="g3542"
       transform="matrix(0.09884921,0,0,0.09884921,79.42292,179.78915)"><path
         id="rect1151"
         style="fill:#80411e;fill-opacity:1;stroke-width:0.296329"
         d="m 103.2386,37.803723 c 0,0 76.35838,107.332267 62.3137,164.148057 -6.4238,25.98663 -33.44385,52.3123 -60.1995,53.15213 C 78.020912,255.96183 48.013815,231.08413 40.572515,204.77072 24.395744,147.56755 103.2386,37.803723 103.2386,37.803723 Z"
         sodipodi:nodetypes="caaac" /><path
         id="path10039"
         style="fill:#ad6d2f;fill-opacity:1;stroke-width:0.274629"
         d="m 102.31886,43.091165 c 0,0 71.6049,99.686775 57.75056,152.127745 -6.40966,24.2616 -32.90162,47.67524 -57.99351,48.00141 C 77.571871,243.53884 50.853042,221.42888 44.241717,197.83142 29.378484,144.78086 102.31886,43.091165 102.31886,43.091165 Z"
         sodipodi:nodetypes="caaac" /><path
         id="path11633"
         style="fill:#d49961;fill-opacity:1;stroke-width:0.222615"
         d="m 101.15488,47.885361 c 0,0 58.0433,80.806619 46.8129,123.315529 -5.1957,19.66659 -26.67023,38.6458 -47.00983,38.9102 C 81.094835,210.36929 59.436414,192.44684 54.07724,173.31861 42.029026,130.31555 101.15488,47.885361 101.15488,47.885361 Z"
         sodipodi:nodetypes="caaac" /><path
         id="path10836"
         style="fill:#e4bc84;fill-opacity:1;stroke-width:0.14973"
         d="m 99.159949,54.095793 c 0,0 39.438181,53.031647 31.945071,81.105477 -3.4784,13.03222 -18.13357,24.94838 -31.618561,25.25286 -13.371082,0.30189 -28.677979,-10.76734 -32.449637,-23.599 -8.34497,-28.39064 32.123127,-82.759337 32.123127,-82.759337 z"
         sodipodi:nodetypes="caaac" /><path
         id="path12361"
         style="opacity:1;fill:#fdf2e7;fill-opacity:0.915254;stroke-width:0.264515"
         d="m 158.66627,175.98071 c -0.1866,3.87252 -0.70281,7.58091 -1.62367,11.06651 -6.17361,23.36811 -31.68977,45.91971 -55.85758,46.23387 -23.601617,0.30679 -49.336763,-20.9888 -55.704608,-43.71723 -1.046649,-3.73575 -1.629387,-7.7278 -1.832446,-11.9078 -0.31047,6.73094 0.221297,13.07876 1.832446,18.82935 6.367845,22.72842 32.102991,44.02401 55.704608,43.71722 24.16781,-0.31416 49.68397,-22.86524 55.85758,-46.23335 1.45699,-5.51494 1.93234,-11.57284 1.62367,-17.98857 z" /><path
         id="path13818"
         style="opacity:1;fill:#fdf2e7;fill-opacity:0.915254;stroke-width:0.222615"
         d="m 55.228925,146.52933 c 0.32058,2.29571 0.74743,4.53604 1.31826,6.69675 6.37799,24.14176 31.017072,47.36048 55.950655,51.79768 -3.01938,0.73188 -6.05958,1.11386 -9.05939,1.07487 -20.339573,-0.2644 -42.246955,-18.33919 -47.442645,-38.00576 -1.70266,-6.44484 -1.80519,-13.77314 -0.76688,-21.56354 z"
         sodipodi:nodetypes="cccssc" /><g
         id="g16062"
         transform="matrix(1.3743056,0.46479153,-0.46479153,1.3743056,30.14742,-99.78321)"
         style="fill:#fdf2e7;fill-opacity:0.915254"><ellipse
           style="opacity:1;fill:#fdf2e7;fill-opacity:0.915254;stroke-width:0.264583"
           id="path16053"
           cx="76.609642"
           cy="141.57838"
           rx="4.8765888"
           ry="6.2923727" /><ellipse
           style="opacity:1;fill:#fdf2e7;fill-opacity:0.915254;stroke-width:0.191823"
           id="ellipse16055"
           cx="76.609642"
           cy="127.89248"
           rx="3.5355268"
           ry="4.5619702" /><ellipse
           style="opacity:1;fill:#fdf2e7;fill-opacity:0.915254;stroke-width:0.119063"
           id="ellipse16057"
           cx="76.609642"
           cy="117.66737"
           rx="2.1944647"
           ry="2.8315678" /></g></g></g></svg>
